# xmcd
#
# Track frame offsets:
#	182
#	3897
#	10270
#	29307
#	46622
#	60562
#	63792
#	79040
#	97320
#	117285
#	137102
#	156547
#	171842
#	181737
#	201770
#	221420
#	226172
#	243945
#	265607
#	274455
#	286380
#	304615
#
# Disc length: 4261 seconds
#
# Revision: 5
# Processed by: cddbd v1.5.2PL0 Copyright (c) Steve Scherf et al.
# Submitted via: EasyCDDAExtractor 2010.4.0.0
#
DISCID=2710a316
DTITLE=Black Sheep - A Wolf In Sheep's Clothing
DYEAR=1991
DGENRE=Rap
TTITLE0=Intro
TTITLE1=U Mean I'm Not
TTITLE2=Butt... In The Meantime
TTITLE3=Have U.N.E. Pull
TTITLE4=Strobelite Honey
TTITLE5=Are You Mad?
TTITLE6=The Choice Is Yours
TTITLE7=To Whom It May Concern
TTITLE8=Similak Child
TTITLE9=Try Counting Sheep
TTITLE10=Flavor Of The Month
TTITLE11=La Menage
TTITLE12=L.A.S.M.
TTITLE13=Gimme The Finga
TTITLE14=Hoes We Knows
TTITLE15=Go To Hail
TTITLE16=Black With N.V. (No Vision)
TTITLE17=Pass The 40
TTITLE18=Blunted
TTITLE19=For Doz That Slept
TTITLE20=The Choice Is Yours [Revisited] (Bonus Track)
TTITLE21=Yes (Bonus Track)
EXTD=
EXTT0=
EXTT1=
EXTT2=
EXTT3=
EXTT4=
EXTT5=
EXTT6=
EXTT7=
EXTT8=
EXTT9=
EXTT10=
EXTT11=
EXTT12=
EXTT13=
EXTT14=
EXTT15=
EXTT16=
EXTT17=
EXTT18=
EXTT19=
EXTT20=
EXTT21=
PLAYORDER=
